<?xml version="1.0"?>
<svg xmlns="http://www.w3.org/2000/svg" xmlnsXlink="http://www.w3.org/1999/xlink" xmlnssvgjs="http://svgjs.com/svgjs" version="1.1" width="512" height="512" x="0" y="0" viewBox="0 0 448.01076 448" style="enable-background:new 0 0 512 512" xml:space="preserve" class=""><g><path xmlns="http://www.w3.org/2000/svg" d="m239.789062 193.535156c-5.203124-1.03125-10.496093-1.542968-15.800781-1.53125-3.335937-.003906-6.671875.214844-9.980469.648438-27.574218 3.484375-51.371093 21.011718-62.875 46.3125-4.742187 10.367187-7.179687 21.640625-7.144531 33.039062.027344 42.121094 32.707031 77.007813 74.734375 79.78125 42.03125 2.769532 79.011719-27.519531 84.566406-69.269531 5.558594-41.753906-22.207031-80.664063-63.5-88.980469zm16.066407 101.597656c.078125.726563.054687 1.457032-.074219 2.175782 0 .265625-.0625.519531-.128906.800781-.25.941406-.667969 1.832031-1.238282 2.625v.054687l-24 32c-1.511718 2.015626-3.882812 3.199219-6.398437 3.199219-2.519531 0-4.890625-1.183593-6.402344-3.199219l-24-32v-.054687c-.566406-.792969-.988281-1.683594-1.238281-2.625-.066406-.257813-.089844-.511719-.128906-.800781-.128906-.71875-.152344-1.449219-.070313-2.175782 0-.175781-.050781-.34375 0-.519531.035157-.121093.082031-.238281.132813-.351562 0-.199219 0-.398438.082031-.59375l24-80c1.011719-3.386719 4.128906-5.703125 7.664063-5.703125 3.535156 0 6.648437 2.316406 7.664062 5.703125l24 80c.054688.195312.039062.394531.078125.59375.054687.113281.097656.230469.136719.351562-.03125.214844-.09375.382813-.078125.59375zm0 0" fill="#3b413c" data-original="#000000" style="" class=""/><path xmlns="http://www.w3.org/2000/svg" d="m328.132812 231.070312c-.460937-1.191406-.910156-2.402343-1.421874-3.585937-1.226563-2.816406-2.546876-5.597656-4-8.269531-.113282-.203125-.199219-.417969-.304688-.617188-1.601562-2.976562-3.390625-5.847656-5.265625-8.65625-.589844-.878906-1.253906-1.726562-1.871094-2.601562-1.289062-1.804688-2.589843-3.589844-4-5.308594-.800781-.976562-1.597656-1.914062-2.398437-2.859375-1.414063-1.648437-2.875-3.246094-4.386719-4.796875-.742187-.800781-1.488281-1.554688-2.253906-2.304688-2.105469-2.066406-4.28125-4.066406-6.542969-5.960937-.21875-.175781-.417969-.375-.625-.550781-2.558594-2.097656-5.210938-4.078125-7.953125-5.945313-.679687-.464843-1.375-.886719-2.0625-1.335937-2.066406-1.355469-4.175781-2.636719-6.335937-3.847656-.921876-.519532-1.847657-1.03125-2.785157-1.527344-2.175781-1.148438-4.398437-2.214844-6.664062-3.199219-.800781-.355469-1.542969-.738281-2.34375-1.066406-3.0625-1.28125-6.1875-2.425781-9.375-3.4375-.464844-.144531-.929688-.257813-1.394531-.394531-2.671876-.800782-5.382813-1.496094-8.132813-2.09375-.96875-.21875-1.929687-.417969-2.90625-.609376-2.816406-.535156-5.671875-.984374-8.558594-1.3125-.554687-.054687-1.105469-.144531-1.65625-.199218-3.570312-.382813-7.214843-.585938-10.90625-.585938l-.796875.152344-.351562-.070312c-.457032 0-.914063 0-1.371094.046874-2.503906.054688-4.992188.160157-7.453125.375-1.042969.089844-2.074219.203126-3.113281.320313-2.792969.328125-5.550782.746094-8.28125 1.273437-.847656.160157-1.6875.335938-2.535156.527344-2.464844.535156-4.886719 1.175782-7.296876 1.878906-1.824218.53125-3.613281 1.136719-5.398437 1.753907-1.785156.617187-3.367187 1.175781-5.023437 1.839843-1.449219.574219-2.875 1.207032-4.296876 1.839844-1.96875.894532-3.914062 1.816406-5.824218 2.816406-1.0625.550782-2.113282 1.128907-3.152344 1.710938-2.191406 1.242188-4.34375 2.535156-6.398438 3.914062-.753906.496094-1.503906.992188-2.242187 1.503907-2.253906 1.5625-4.445313 3.199219-6.566406 4.910156-.59375.480469-1.191407.953125-1.785157 1.449219-2.078124 1.742187-4.085937 3.589844-6.039062 5.488281-.625.613281-1.265625 1.207031-1.878906 1.839844-1.691406 1.710937-3.289063 3.519531-4.867188 5.34375-.796875.976562-1.695312 1.925781-2.496094 2.933593-1.109374 1.378907-2.140624 2.832032-3.199218 4.265626-1.160156 1.601562-2.34375 3.199218-3.421875 4.871093-1.082031 1.671875-2.183594 3.488281-3.203125 5.28125-.664063 1.152344-1.34375 2.296875-1.964844 3.464844-1.328125 2.503906-2.5625 5.0625-3.707031 7.671875-.476563 1.101562-.902344 2.222656-1.34375 3.34375-.75 1.871094-1.445313 3.773438-2.085938 5.695312-.480469 1.425782-.945312 2.855469-1.359375 4.304688-13.789062 47.003906 4.570313 97.519531 45.320313 124.699219 40.753906 27.183593 94.445312 24.726562 132.546875-6.0625 38.097656-30.789063 51.769531-82.765625 33.746094-128.316407zm-104.144531 136.933594c-52.992187-.054687-95.941406-43.003906-96-96-.039062-13.679687 2.882813-27.203125 8.570313-39.648437 19.730468-43.507813 68.449218-65.886719 114.3125-52.507813 45.863281 13.375 74.910156 58.441406 68.152344 105.734375-6.757813 47.292969-47.261719 82.421875-95.035157 82.421875zm0 0" fill="#3b413c" data-original="#000000" style="" class=""/><path xmlns="http://www.w3.org/2000/svg" d="m211.46875 297.972656 12.519531 16.695313 12.523438-16.695313-12.523438-8.351562zm0 0" fill="#3b413c" data-original="#000000" style="" class=""/><path xmlns="http://www.w3.org/2000/svg" d="m105.421875 215.667969c-1.542969-.101563-3.078125-.191407-4.601563-.367188-1.664062-.191406-3.285156-.480469-4.917968-.75-1.496094-.257812-3-.496093-4.472656-.800781-1.601563-.351562-3.199219-.800781-4.742188-1.226562-1.449219-.390626-2.898438-.796876-4.320312-1.230469-1.425782-.429688-3.035157-1.085938-4.539063-1.664063-1.503906-.574218-2.789063-1.039062-4.140625-1.597656-1.355469-.5625-2.882812-1.371094-4.3125-2.082031-1.433594-.710938-2.664062-1.296875-3.953125-2.015625s-2.71875-1.601563-4.054687-2.464844c-1.335938-.863281-2.519532-1.535156-3.738282-2.398438-1.214844-.863281-2.535156-1.882812-3.800781-2.839843-1.261719-.960938-2.34375-1.753907-3.460937-2.6875-1.121094-.9375-2.359376-2.128907-3.527344-3.203125-1.167969-1.070313-2.160156-1.941406-3.203125-2.984375-1.039063-1.039063-2.160157-2.351563-3.199219-3.550781-.960938-1.070313-1.953125-2.121094-2.863281-3.238282-1.023438-1.257812-1.953125-2.578125-2.914063-3.890625-.847656-1.152343-1.726562-2.269531-2.527344-3.460937-.910156-1.363282-1.71875-2.800782-2.558593-4.210938-.726563-1.214844-1.496094-2.398437-2.167969-3.648437-.800781-1.476563-1.472656-3.023438-2.191406-4.550781-.601563-1.253907-1.25-2.488282-1.785156-3.773438-.671876-1.601562-1.214844-3.273438-1.808594-4.921875-.445313-1.273437-.96875-2.519531-1.367188-3.816406-.542968-1.769531-.953125-3.589844-1.390625-5.398438-.304687-1.242187-.679687-2.457031-.9375-3.714843-.421875-2.070313-.679687-4.191407-.96875-6.308594-.144531-1.050782-.359375-2.066406-.464843-3.121094-.332032-3.238281-.5-6.488281-.503907-9.746094 0-53.019531 42.980469-96 96-96s96 42.980469 96 96c-.027343 3.945313-.292969 7.882813-.796875 11.792969-.152344 1.214844-.386718 2.402344-.585937 3.609375-.429688 2.71875-.980469 5.414062-1.648438 8.078125-.167969.65625-.222656 1.34375-.40625 2.007813 1.421875-.222657 2.839844-.335938 4.253907-.503907 1.066406-.125 2.113281-.277343 3.203124-.375 3.101563-.289062 6.207032-.472656 9.300782-.511719.050781-.207031.105468-.417968.152344-.625.738281-3.398437 1.289062-6.839843 1.695312-10.304687.097656-.796875.167969-1.597656.25-2.398437.34375-3.566407.582031-7.144532.582031-10.769532.046875-15.027344-2.96875-29.90625-8.871093-43.726562-21.421876-50.539063-76.316407-78.101563-129.644532-65.101563-53.332031 13-89.378906 62.738281-85.136718 117.464844 4.238281 54.726563 47.519531 98.316406 102.214843 102.949219.96875-2.914063 2.0625-5.785156 3.238281-8.617188.367188-.871094.800782-1.71875 1.160157-2.582031.65625-1.480469 1.28125-2.976563 1.992187-4.433594-1.191406-.039062-2.34375-.207031-3.519531-.289062zm0 0" fill="#3b413c" data-original="#000000" style="" class=""/><path xmlns="http://www.w3.org/2000/svg" d="m223.988281 272.003906c1.582031 0 3.125.46875 4.441407 1.34375l5.511718 3.671875-9.953125-33.175781-9.949219 33.175781 5.511719-3.671875c1.3125-.875 2.859375-1.34375 4.4375-1.34375zm0 0" fill="#3b413c" data-original="#000000" style="" class=""/><path xmlns="http://www.w3.org/2000/svg" d="m335.988281.00390625c-46.777343.00390625-88.625 29.07812475-104.949219 72.91406275.679688 1.695312 1.183594 3.457031 1.78125 5.175781.601563 1.71875 1.21875 3.320312 1.722657 5.007812.726562 2.398438 1.285156 4.800782 1.863281 7.253907.375 1.601562.800781 3.152343 1.144531 4.761719.535157 2.71875.886719 5.488281 1.246094 8.257812.175781 1.359375.441406 2.695312.570313 4.0625.40625 4.152344.621093 8.335938.621093 12.566406 0 3.714844-.222656 7.417969-.542969 11.097656-.078124.984376-.191406 1.96875-.296874 2.953126-.351563 3.132812-.8125 6.246093-1.382813 9.335937-.078125.445313-.113281.902344-.199219 1.34375.71875.078125 1.429688.253906 2.144532.34375 2.261718.269531 4.496093.632813 6.71875 1.023437-14.878907-39.253906-2.5-83.625 30.558593-109.503906 33.058594-25.875 79.101563-27.242187 113.636719-3.375 34.535156 23.871094 49.527344 67.429688 37.003906 107.496094-12.527344 40.070312-49.65625 67.335938-91.640625 67.285156-.398437 0-.796875-.054687-1.199219-.054687.417969.71875.800782 1.472656 1.183594 2.199219.386719.730468.800782 1.464843 1.167969 2.191406 1.453125 2.742187 2.796875 5.53125 4.042969 8.371094.320312.734374.671875 1.453124.980468 2.199218.128907.304688.28125.597656.402344.902344 60.480469-3.546875 107.175782-54.539062 105.394532-115.097656-1.777344-60.554688-51.386719-108.7226565-111.972657-108.71093775zm0 0" fill="#3b413c" data-original="#000000" style="" class=""/><path xmlns="http://www.w3.org/2000/svg" d="m269.726562 152.523438c1.128907.441406 2.269532.851562 3.390626 1.3125.296874.128906.609374.242187.914062.371093 1.511719.644531 2.976562 1.375 4.460938 2.070313 1.042968.496094 2.097656.953125 3.121093 1.472656.800781.414062 1.601563.855469 2.402344 1.289062.796875.429688 1.503906.839844 2.261719 1.261719l.90625.503907c.796875.464843 1.644531.890624 2.445312 1.367187 1.601563.96875 3.160156 2.007813 4.722656 3.042969.542969.359375 1.085938.6875 1.597657 1.054687 2.960937 2.023438 5.855469 4.144531 8.648437 6.398438l.695313.578125.074219.0625c.511718.425781.992187.890625 1.496093 1.320312 1.597657 1.335938 3.117188 2.664063 4.613281 4.074219.699219.664063 1.371094 1.351563 2.050782 2.03125.679687.679687 1.160156 1.152344 1.734375 1.734375.894531.921875 1.800781 1.832031 2.671875 2.777344.871094.941406 1.726562 1.960937 2.585937 2.953125.453125.527343.933594 1.039062 1.382813 1.597656.304687.359375.632812.695313.925781 1.054687l.121094.144532c4.3125.6875 8.675781 1.023437 13.039062 1.007812 36.054688-.046875 67.609375-24.234375 77.023438-59.035156 9.414062-34.804688-5.648438-71.601562-36.765625-89.8125-31.117188-18.210938-70.574219-13.328125-96.3125 11.921875-25.734375 25.246094-31.375 64.605469-13.757813 96.0625 1.207031.425781 2.367188.929687 3.550781 1.382813zm74.261719-32.519532h-16c-13.253906 0-24-10.742187-24-24 0-13.253906 10.746094-24 24-24v-8h16v8c13.257813 0 24 10.746094 24 24h-16c0-4.417968-3.578125-8-8-8h-16c-4.417969 0-8 3.582032-8 8 0 4.417969 3.582031 8 8 8h16c13.257813 0 24 10.746094 24 24 0 13.257813-10.742187 24-24 24v8h-16v-8c-13.253906 0-24-10.742187-24-24h16c0 4.417969 3.582031 8 8 8h16c4.421875 0 8-3.582031 8-8 0-4.417968-3.578125-8-8-8zm0 0" fill="#3b413c" data-original="#000000" style="" class=""/><path xmlns="http://www.w3.org/2000/svg" d="m127.988281 104.003906c0-4.417968-3.578125-8-8-8h-24v16h24c4.421875 0 8-3.582031 8-8zm0 0" fill="#3b413c" data-original="#000000" style="" class=""/><path xmlns="http://www.w3.org/2000/svg" d="m118.542969 199.582031c4.386719-6.40625 9.351562-12.394531 14.839843-17.886719.191407-.195312.398438-.371093.589844-.5625 2.640625-2.625 5.386719-5.121093 8.242188-7.496093.375-.3125.800781-.617188 1.152344-.925781 2.664062-2.171876 5.417968-4.230469 8.253906-6.175782l1.808594-1.226562c2.636718-1.734375 5.324218-3.367188 8.074218-4.902344.847656-.480469 1.679688-.960938 2.535156-1.417969 2.542969-1.34375 5.152344-2.582031 7.789063-3.757812 1.082031-.480469 2.136719-1.007813 3.203125-1.464844 2.558594-1.046875 5.183594-1.96875 7.824219-2.863281 1.09375-.378906 2.160156-.800782 3.269531-1.183594.351562-.867188.714844-1.730469 1.03125-2.601562.386719-1.0625.800781-2.128907 1.113281-3.199219.496094-1.601563.90625-3.160157 1.296875-4.753907.246094-1.007812.527344-2 .734375-3.007812.359375-1.78125.617188-3.597656.863281-5.40625.113282-.863281.28125-1.710938.371094-2.585938.261719-2.695312.421875-5.40625.421875-8.160156 0-44.183594-35.824219-80.003906-80.007812-80-44.1875.007813-80.003907 35.835938-79.992188 80.023438s35.847657 79.996094 80.03125 79.976562c2.210938 0 4.378907-.238281 6.554688-.421875zm-14.554688-31.578125h-16v-8c-4.417969 0-8-3.582031-8-8v-64c0-4.417968 3.582031-8 8-8v-8h16v8h8v-8h16v9.472656c7.570313 2.617188 13.308594 8.871094 15.277344 16.632813 1.964844 7.761719-.109375 15.992187-5.515625 21.894531 5.40625 5.90625 7.480469 14.136719 5.515625 21.898438-1.96875 7.761718-7.707031 14.011718-15.277344 16.632812v9.46875h-16v-8h-8zm0 0" fill="#3b413c" data-original="#000000" style="" class=""/><path xmlns="http://www.w3.org/2000/svg" d="m127.988281 136.003906c0-4.417968-3.578125-8-8-8h-24v16h24c4.421875 0 8-3.582031 8-8zm0 0" fill="#3b413c" data-original="#000000" style="" class=""/></g></svg>
